<?xml version="1.0" encoding="UTF-8"?>
<svg xmlns="http://www.w3.org/2000/svg" width="1024" height="1024" viewBox="0 0 1024 1024" role="img" aria-labelledby="title desc">
  <title id="title">MIKU Codex app icon</title>
  <desc id="desc">A bright teal music-and-code emblem with twin-tail waveforms and the number 01.</desc>
  <defs>
    <linearGradient id="base" x1="166" y1="112" x2="856" y2="918" gradientUnits="userSpaceOnUse">
      <stop stop-color="#B8FFF4"/>
      <stop offset="0.44" stop-color="#31D5CC"/>
      <stop offset="1" stop-color="#07928E"/>
    </linearGradient>
    <linearGradient id="glass" x1="280" y1="246" x2="744" y2="790" gradientUnits="userSpaceOnUse">
      <stop stop-color="#F8FFFD" stop-opacity="0.98"/>
      <stop offset="1" stop-color="#D8FFF8" stop-opacity="0.88"/>
    </linearGradient>
    <linearGradient id="ribbon" x1="196" y1="296" x2="828" y2="706" gradientUnits="userSpaceOnUse">
      <stop stop-color="#077E7C"/>
      <stop offset="0.52" stop-color="#0AA9A4"/>
      <stop offset="1" stop-color="#075E64"/>
    </linearGradient>
    <filter id="shadow" x="-30%" y="-30%" width="160%" height="170%">
      <feDropShadow dx="0" dy="28" stdDeviation="28" flood-color="#064D56" flood-opacity="0.28"/>
    </filter>
    <filter id="soft" x="-50%" y="-50%" width="200%" height="200%">
      <feGaussianBlur stdDeviation="18"/>
    </filter>
    <clipPath id="app-mask">
      <rect x="64" y="64" width="896" height="896" rx="220"/>
    </clipPath>
  </defs>

  <g clip-path="url(#app-mask)">
    <rect x="64" y="64" width="896" height="896" rx="220" fill="url(#base)"/>
    <circle cx="220" cy="194" r="166" fill="#FFF2F5" opacity="0.56" filter="url(#soft)"/>
    <circle cx="846" cy="804" r="204" fill="#FFF0B8" opacity="0.38" filter="url(#soft)"/>
    <path d="M90 678C232 612 328 626 430 690C530 754 654 774 934 624" fill="none" stroke="#F69AB2" stroke-width="18" stroke-linecap="round" opacity="0.72"/>
    <path d="M84 724C250 654 334 684 426 730C536 786 674 796 944 680" fill="none" stroke="#FFF1A8" stroke-width="9" stroke-linecap="round" opacity="0.72"/>

    <g opacity="0.26" fill="none" stroke="#F7FFFD" stroke-linecap="round">
      <path d="M118 358H214L246 322L286 394L332 264L382 358H456" stroke-width="12"/>
      <path d="M568 358H646L682 314L724 390L764 288L804 358H906" stroke-width="12"/>
      <circle cx="148" cy="802" r="10" fill="#F7FFFD" stroke="none"/>
      <circle cx="884" cy="248" r="8" fill="#F7FFFD" stroke="none"/>
    </g>

    <g filter="url(#shadow)">
      <path d="M456 274C358 214 244 232 184 320C126 404 140 540 224 620C278 672 328 718 310 822C398 782 442 706 426 630C410 552 336 504 306 438C278 376 322 328 410 348Z" fill="url(#ribbon)"/>
      <path d="M568 274C666 214 780 232 840 320C898 404 884 540 800 620C746 672 696 718 714 822C626 782 582 706 598 630C614 552 688 504 718 438C746 376 702 328 614 348Z" fill="url(#ribbon)"/>
      <rect x="224" y="196" width="576" height="620" rx="188" fill="url(#glass)" stroke="#FFFFFF" stroke-width="14"/>
    </g>

    <path d="M388 382L296 512L388 642" fill="none" stroke="#075E64" stroke-width="50" stroke-linecap="round" stroke-linejoin="round"/>
    <path d="M636 382L728 512L636 642" fill="none" stroke="#075E64" stroke-width="50" stroke-linecap="round" stroke-linejoin="round"/>

    <path d="M436 536V424L586 392V518" fill="none" stroke="#0AA9A4" stroke-width="38" stroke-linecap="round" stroke-linejoin="round"/>
    <ellipse cx="404" cy="568" rx="58" ry="44" transform="rotate(-14 404 568)" fill="#0AA9A4"/>
    <ellipse cx="554" cy="550" rx="58" ry="44" transform="rotate(-14 554 550)" fill="#0AA9A4"/>
    <path d="M452 690C480 660 506 720 536 680C564 642 590 692 616 664" fill="none" stroke="#E95F83" stroke-width="24" stroke-linecap="round"/>

    <g fill="#E95F83">
      <path fill-rule="evenodd" d="M650 706H712C732 706 748 722 748 742V762C748 782 732 798 712 798H650C630 798 614 782 614 762V742C614 722 630 706 650 706ZM660 730C652 730 646 736 646 744V760C646 768 652 774 660 774H702C710 774 716 768 716 760V744C716 736 710 730 702 730Z"/>
      <rect x="770" y="706" width="26" height="92" rx="13"/>
    </g>
    <path d="M286 250L298 278L326 290L298 302L286 330L274 302L246 290L274 278Z" fill="#FFF0A6"/>
    <path d="M768 226L777 247L798 256L777 265L768 286L759 265L738 256L759 247Z" fill="#F69AB2"/>
  </g>
  <rect x="71" y="71" width="882" height="882" rx="213" fill="none" stroke="#FFFFFF" stroke-opacity="0.62" stroke-width="14"/>
</svg>
